<?xml version="1.0" encoding="utf-8"?>
<svg width="800px" height="800px" viewBox="0 0 24 24" fill="none" xmlns="http://www.w3.org/2000/svg">
  <defs/>
  <path style="fill: rgb(255, 255, 255); stroke: rgb(255, 255, 255);" d="M 14.572 3.58 L 21.734 5.919 C 21.734 5.919 22.027 5.802 22.027 5.831 C 22.027 5.86 17.525 21.88 17.525 21.88 L 12.029 21.003 L 3.289 19.804 L 1.769 18.138 L 2.47 2.528 L 13.725 2.206 L 15.596 3.376 L 14.572 3.58 Z">
    <title>fill</title>
  </path>
  <path d="M 8.844 7.27 C 8.644 7.004 8.244 7.004 8.044 7.27 L 5.669 10.437 C 5.536 10.615 5.536 10.859 5.669 11.037 L 8.044 14.204 C 8.244 14.47 8.644 14.47 8.844 14.204 L 11.219 11.037 C 11.353 10.859 11.353 10.615 11.219 10.437 L 8.844 7.27 Z" fill="#0F0F0F"/>
  <path d="M4.09245 5.63868C4.03647 5.5547 4.03647 5.4453 4.09245 5.36133L4.79199 4.31202C4.89094 4.16359 5.10906 4.16359 5.20801 4.31202L5.90755 5.36132C5.96353 5.4453 5.96353 5.5547 5.90755 5.63867L5.20801 6.68798C5.10906 6.83641 4.89094 6.83641 4.79199 6.68798L4.09245 5.63868Z" fill="#0F0F0F"/>
  <path d="M13.208 15.312C13.1091 15.1636 12.8909 15.1636 12.792 15.312L12.0924 16.3613C12.0365 16.4453 12.0365 16.5547 12.0924 16.6387L12.792 17.688C12.8909 17.8364 13.1091 17.8364 13.208 17.688L13.9075 16.6387C13.9635 16.5547 13.9635 16.4453 13.9075 16.3613L13.208 15.312Z" fill="#0F0F0F"/>
  <path fill-rule="evenodd" clip-rule="evenodd" d="M1 4C1 2.34315 2.34315 1 4 1H14C15.1323 1 16.1181 1.62732 16.6288 2.55337L20.839 3.68148C22.4394 4.11031 23.3891 5.75532 22.9603 7.35572L19.3368 20.8787C18.908 22.4791 17.263 23.4288 15.6626 23L8.19849 21H4C2.34315 21 1 19.6569 1 18V4ZM17 18V4.72339L20.3213 5.61334C20.8548 5.75628 21.1714 6.30461 21.0284 6.83808L17.405 20.361C17.262 20.8945 16.7137 21.2111 16.1802 21.0681L15.1198 20.784C16.222 20.3403 17 19.261 17 18ZM4 3C3.44772 3 3 3.44772 3 4V18C3 18.5523 3.44772 19 4 19H14C14.5523 19 15 18.5523 15 18V4C15 3.44772 14.5523 3 14 3H4Z" fill="#0F0F0F"/>
</svg>